<svg xmlns="http://www.w3.org/2000/svg" viewBox="0 0 405.72 405.72"><defs><style>.cls-1{fill:#153243;}.cls-2,.cls-4{fill:none;}.cls-2,.cls-4,.cls-6{stroke:#fff;}.cls-2,.cls-4,.cls-5,.cls-6,.cls-7{stroke-linecap:round;}.cls-2,.cls-9{stroke-miterlimit:10;}.cls-2{stroke-width:5px;}.cls-10,.cls-3,.cls-5,.cls-6,.cls-9{fill:#fff;}.cls-4,.cls-5,.cls-6,.cls-7{stroke-linejoin:round;}.cls-4{stroke-width:2px;}.cls-5,.cls-7,.cls-9{stroke:#231f20;}.cls-5,.cls-6,.cls-7{stroke-width:0.75px;}.cls-7,.cls-8{fill:#231f20;}.cls-9{font-size:104.3px;}.cls-10,.cls-9{font-family:Sylfaen;}.cls-10{font-size:10.43px;}</style></defs><g id="Layer_4" data-name="Layer 4"><circle class="cls-1" cx="202.86" cy="202.86" r="202.86"/><circle class="cls-2" cx="202.86" cy="202.36" r="190.79"/><path class="cls-1" d="M309.26,350c3.22,0,3.23-5,0-5s-3.22,5,0,5Z" transform="translate(-222.45 -144.29)"/><path class="cls-3" d="M308.93,349.39c.51,0,1,0,1.54,0a12.36,12.36,0,0,0,1.49,0,.5.5,0,0,0,.5-.5.51.51,0,0,0-.5-.5,12.36,12.36,0,0,1-1.49,0c-.52,0-1,0-1.54,0a.5.5,0,1,0,0,1Z" transform="translate(-222.45 -144.29)"/><path class="cls-3" d="M308.83,349.2a17.16,17.16,0,0,0,2.12.39.55.55,0,0,0,.36-.15.52.52,0,0,0,.14-.35.52.52,0,0,0-.14-.36.6.6,0,0,0-.36-.14l-.13,0s-.18,0,0,0l-.23,0-.49-.08-1-.21a.5.5,0,0,0-.26,1Z" transform="translate(-222.45 -144.29)"/><path class="cls-3" d="M311.07,349.61a.5.5,0,0,0,0-1,.5.5,0,0,0,0,1Z" transform="translate(-222.45 -144.29)"/><path class="cls-3" d="M311.28,349.49h0a.31.31,0,0,0,.19,0,.34.34,0,0,0,.16-.1.42.42,0,0,0,.11-.16.45.45,0,0,0,0-.2l0-.13a.42.42,0,0,0-.13-.22l-.1-.08a.55.55,0,0,0-.25-.07h0a.45.45,0,0,0-.19.05.42.42,0,0,0-.26.26.45.45,0,0,0-.05.19l0,.14a.61.61,0,0,0,.13.22l.1.08a.54.54,0,0,0,.25.06Z" transform="translate(-222.45 -144.29)"/><path class="cls-3" d="M311.35,349.4a.5.5,0,0,0,0-1,.5.5,0,0,0,0,1Z" transform="translate(-222.45 -144.29)"/><path class="cls-3" d="M311.44,349.38h.14a.45.45,0,0,0,.2,0,.54.54,0,0,0,.16-.1.48.48,0,0,0,.1-.17.3.3,0,0,0,0-.19l0-.13a.43.43,0,0,0-.12-.22l-.11-.08a.52.52,0,0,0-.25-.07h-.14a.32.32,0,0,0-.19.05.34.34,0,0,0-.16.1.46.46,0,0,0-.11.16.41.41,0,0,0,0,.19l0,.13a.53.53,0,0,0,.13.23l.1.07a.45.45,0,0,0,.25.07Z" transform="translate(-222.45 -144.29)"/><path class="cls-3" d="M311.83,349.36h0a.41.41,0,0,0,.19,0,.36.36,0,0,0,.16-.11.34.34,0,0,0,.1-.16.32.32,0,0,0,.05-.19l0-.13a.45.45,0,0,0-.13-.22l-.1-.08a.45.45,0,0,0-.25-.07h0a.41.41,0,0,0-.19,0,.36.36,0,0,0-.16.11.31.31,0,0,0-.11.16.41.41,0,0,0,0,.19l0,.13a.38.38,0,0,0,.13.22l.1.08a.45.45,0,0,0,.25.07Z" transform="translate(-222.45 -144.29)"/><path class="cls-3" d="M312.05,349.34a.5.5,0,0,0,0-1,.5.5,0,0,0,0,1Z" transform="translate(-222.45 -144.29)"/><path class="cls-3" d="M312.13,349.32a.5.5,0,0,0,0-1,.5.5,0,0,0,0,1Z" transform="translate(-222.45 -144.29)"/><path class="cls-3" d="M312.13,348.33H309l.13,1a5.88,5.88,0,0,1,1,0h3.31a.5.5,0,0,0,0-1h-2.3a14.86,14.86,0,0,0-2.31.06.51.51,0,0,0,.14,1h3.18a.5.5,0,0,0,0-1Z" transform="translate(-222.45 -144.29)"/><path class="cls-3" d="M313.72,349.34a.5.5,0,0,0,0-1,.5.5,0,0,0,0,1Z" transform="translate(-222.45 -144.29)"/><path class="cls-3" d="M313.51,348.44h-1a.48.48,0,0,0-.5.5.51.51,0,0,0,.5.5h1a.53.53,0,0,0,.36-.15.5.5,0,0,0,.14-.35.51.51,0,0,0-.5-.5Z" transform="translate(-222.45 -144.29)"/><path class="cls-3" d="M313.09,348.29h-3.93a.5.5,0,0,0,0,1h3.93a.5.5,0,0,0,0-1Z" transform="translate(-222.45 -144.29)"/><path class="cls-3" d="M311.76,348.41H307.9a.5.5,0,0,0,0,1h3.86a.5.5,0,0,0,0-1Z" transform="translate(-222.45 -144.29)"/><path class="cls-3" d="M311.85,347.23a6,6,0,0,0,0,2.36.53.53,0,0,0,.35.35.54.54,0,0,0,.49-.13.83.83,0,0,0,.24-.7c0-.22,0-.44-.05-.65s-.06-.49-.1-.73a1.44,1.44,0,0,0-.1-.37.51.51,0,0,0-1,.22,3.7,3.7,0,0,0,.16,1.2.52.52,0,0,0,.42.36.51.51,0,0,0,.5-.24,3.47,3.47,0,0,0,.33-.67l.11-.3a.78.78,0,0,0,0-.14c0,.06,0,.08,0,0h0s-.12.09-.05.06l-.73-.3a5.5,5.5,0,0,0,.24,1,.63.63,0,0,0,.64.36.58.58,0,0,0,.39-.24.44.44,0,0,0,.08-.11l0,0a.32.32,0,0,1-.27.15.5.5,0,0,0,0-1,.58.58,0,0,0-.48.21.66.66,0,0,0-.12.17l0,0c.13-.11.17-.14.09-.1l.25-.07a.35.35,0,0,1,.31.16s0,0,0,0,0,0,0-.07a2,2,0,0,1-.05-.26,4.94,4.94,0,0,0-.1-.53.49.49,0,0,0-.29-.32.52.52,0,0,0-.44,0c-.3.14-.39.51-.49.79l-.06.16,0,0c0-.07,0,0,0,0a2.07,2.07,0,0,1-.19.32l.92.12a2.17,2.17,0,0,1-.07-.24.5.5,0,0,1,0-.12s0-.17,0-.09V348a.62.62,0,0,0,0-.13v-.27l-.36.49h0l-.49-.13c-.08-.16-.11-.21-.09-.13v.07s0,.07,0,.1,0,.16,0,.24,0,.07,0,.1,0-.08,0,0a1.94,1.94,0,0,1,0,.24c0,.15,0,.3,0,.45v.19s0,0,0,0h0s.1-.15,0-.1l.84.22a1.34,1.34,0,0,1-.07-.27s0-.15,0,0a.49.49,0,0,1,0-.12,3.37,3.37,0,0,1,0-.55c0-.38.1-.75.12-1.13a.5.5,0,0,0-.5-.5.51.51,0,0,0-.5.5Z" transform="translate(-222.45 -144.29)"/><path class="cls-3" d="M313.2,348l-.06.1.07-.1a1.26,1.26,0,0,1-.2.2l.1-.08a4,4,0,0,1-.78.45.5.5,0,0,0-.23.3.5.5,0,0,0,0,.38.5.5,0,0,0,.3.23l.13,0a.48.48,0,0,0,.26-.07,4.19,4.19,0,0,0,.62-.34,1.62,1.62,0,0,0,.6-.59.5.5,0,0,0,.05-.38.5.5,0,0,0-.23-.3.5.5,0,0,0-.38-.05.5.5,0,0,0-.3.23Z" transform="translate(-222.45 -144.29)"/><path class="cls-3" d="M312.06,349.44a.5.5,0,0,0,0-1,.5.5,0,0,0,0,1Z" transform="translate(-222.45 -144.29)"/><path class="cls-3" d="M312,348.42h-1.26a.5.5,0,0,0-.5.5.51.51,0,0,0,.5.5H312a.5.5,0,0,0,0-1Z" transform="translate(-222.45 -144.29)"/><path class="cls-3" d="M309.52,349.41q2.13,0,4.26,0a.5.5,0,0,0,0-1h-2.84v1c.76-.08,1.52,0,2.29-.05a19.4,19.4,0,0,1,2.29-.08c.64,0,.64-1,0-1a19.4,19.4,0,0,0-2.29.08c-.77,0-1.53,0-2.29.05s-.66,1,0,1h2.84v-1q-2.13.08-4.26,0a.5.5,0,0,0,0,1Z" transform="translate(-222.45 -144.29)"/><path class="cls-3" d="M315.45,348.23H308.7a.5.5,0,0,0,0,1h6.75a.5.5,0,0,0,0-1Z" transform="translate(-222.45 -144.29)"/><path class="cls-3" d="M308.68,349.25h3a.5.5,0,1,0,0-1h-3a.5.5,0,0,0,0,1Z" transform="translate(-222.45 -144.29)"/><path class="cls-3" d="M308.72,349.87a.5.5,0,0,0,0-1,.5.5,0,0,0,0,1Z" transform="translate(-222.45 -144.29)"/></g><g id="drawing"><path class="cls-4" d="M305.55,391.4c0-1.75,0-10.93-4.84-14.92a15.2,15.2,0,0,0-1.54-1.11c-3.5-2.14-7.19-2.17-9.7-2.15a25.72,25.72,0,0,0-2.66.15l-5.92-.69A5.18,5.18,0,0,1,279,370.5a5.08,5.08,0,0,1-.41-2.51V365.3a8.9,8.9,0,0,0-.66-2.93,8.78,8.78,0,0,0-1.47-2.37l1.7-1.94-1.34-1.34-1.2-1.2a11.9,11.9,0,0,0,.48-1.76,11.74,11.74,0,0,0,.21-1.8c-.64-.32-1.31-.67-2-1.07s-1.13-.68-1.65-1l2.16-3.29c2.35-3.59,2.29-3.47,2.39-3.65,1.31-2.28,1.66-4.34,2.36-8.46.41-2.4.61-4.61.75-6l.45-4.64c.2-1.36.41-2.73.62-4.09q.25-.94.57-1.95c.29-.89.59-1.74.9-2.54a13.54,13.54,0,0,1,1.22-2.57,13.82,13.82,0,0,1,3-3.38,23,23,0,0,1,2.42-2,21.2,21.2,0,0,1,4.58-2.42,25.43,25.43,0,0,1,3.65-1.11,27.64,27.64,0,0,1,6.06-.53,66.12,66.12,0,0,1,9.51.23,58.85,58.85,0,0,1,7.35,1.62c1.8.48,2.69.72,3.47,1,4.42,1.66,7.14,4.74,9.33,7.23,2,2.28,3.67,4.17,4.49,7a20.49,20.49,0,0,1,.71,4.22c.06,1.31,0,3.26,0,3.49-.1,2.37,0,2.53-.05,3.51a45,45,0,0,1-.66,6.33,29.48,29.48,0,0,1-1.07,4.13,65.54,65.54,0,0,1-2.4,6.28c-2.17,5.25-1.7,4.44-2.87,7.11-1.74,4-2.65,6.05-4.42,8.43-2.12,2.85-3.76,3.95-5.29,4.54a7.35,7.35,0,0,1-2.7.6,8.12,8.12,0,0,1-7.2-4.24,8.21,8.21,0,0,1-.74-5.26" transform="translate(-222.45 -144.29)"/><path class="cls-5" d="M308.15,359.3a1.52,1.52,0,0,1-.43-.83,1.62,1.62,0,0,1,.35-1.26l3.11,0,2.95-.05a1.42,1.42,0,0,1,.07,2.08c-.81,0-1.63,0-2.46,0C310.52,359.23,309.32,359.26,308.15,359.3Z" transform="translate(-222.45 -144.29)"/><path class="cls-5" d="M306.49,353.88a1.28,1.28,0,0,0,.18,2.17h9.17a1.25,1.25,0,0,0,.67-1.13,1.3,1.3,0,0,0-.63-1.05Z" transform="translate(-222.45 -144.29)"/><path class="cls-5" d="M306.49,354a1.38,1.38,0,0,0-.52,1,1.33,1.33,0,0,0,.7,1.22h9.17a1.26,1.26,0,0,0,.67-1.13,1.33,1.33,0,0,0-.63-1.06Z" transform="translate(-222.45 -144.29)"/><path class="cls-5" d="M305.69,350.7a1.41,1.41,0,0,0-.4.69,1.54,1.54,0,0,0,.35,1.27l11,.06a1.19,1.19,0,0,0,.55-1.14,1.24,1.24,0,0,0-.59-.84Z" transform="translate(-222.45 -144.29)"/><path class="cls-6" d="M305.34,348.07a1.23,1.23,0,0,0-.23.62,1.38,1.38,0,0,0,.23.89H316.9a1,1,0,0,0-.07-1.51l-11.55.09a2.09,2.09,0,0,0,1.09-.59,2,2,0,0,0,.48-.84c0-2-.05-3.9-.08-5.86l8.91-.14.06,5.89a2,2,0,0,0,.43.94,2.08,2.08,0,0,0,.66.51" transform="translate(-222.45 -144.29)"/><path class="cls-6" d="M325.46,326.32a13.78,13.78,0,1,1-13.77-13.94A13.84,13.84,0,0,1,325.46,326.32Z" transform="translate(-222.45 -144.29)"/><path class="cls-7" d="M306.77,340.87l-2.45-2.78" transform="translate(-222.45 -144.29)"/><path class="cls-7" d="M315.68,340.73c2.91-2,2.89-2.35,2.89-2.35" transform="translate(-222.45 -144.29)"/><path class="cls-8" d="M309,342.15c3.21,0,3.22-5,0-5s-3.23,5,0,5Z" transform="translate(-222.45 -144.29)"/><path class="cls-8" d="M308.61,341.67c3.21,0,3.22-5,0-5s-3.23,5,0,5Z" transform="translate(-222.45 -144.29)"/><path class="cls-8" d="M313.93,342c3.21,0,3.22-5,0-5s-3.23,5,0,5Z" transform="translate(-222.45 -144.29)"/><path class="cls-8" d="M314.17,341.91c3.21,0,3.22-5,0-5s-3.23,5,0,5Z" transform="translate(-222.45 -144.29)"/><path class="cls-8" d="M314.53,341.91c3.21,0,3.22-5,0-5s-3.23,5,0,5Z" transform="translate(-222.45 -144.29)"/><path class="cls-8" d="M315.54,340.53c3.22,0,3.22-5,0-5s-3.22,5,0,5Z" transform="translate(-222.45 -144.29)"/><path class="cls-8" d="M315.72,340.89c3.22,0,3.22-5,0-5s-3.22,5,0,5Z" transform="translate(-222.45 -144.29)"/><path class="cls-8" d="M306.21,339.4c3.22,0,3.23-5,0-5s-3.22,5,0,5Z" transform="translate(-222.45 -144.29)"/><path class="cls-8" d="M304.08,337l0,.72,4.27-1.76-.18-.23.39.51a6.62,6.62,0,0,1-.74-1.22,2.46,2.46,0,0,0-3.13-1,2.45,2.45,0,0,0-1.44,3,7.63,7.63,0,0,0,.88,1.79,6.75,6.75,0,0,0,.81,1,4.94,4.94,0,0,1,.55.57l-.39-.51a10.35,10.35,0,0,1,.87,1.56c.27.55.52,1.11.76,1.68a2.5,2.5,0,0,0,1.5,1.14,2.52,2.52,0,0,0,1.92-.25,2.46,2.46,0,0,0,1.15-1.49l.09-.67a2.43,2.43,0,0,0-.34-1.26c-.34-.8-.71-1.58-1.11-2.35a7.88,7.88,0,0,0-1-1.46c-.28-.33-.62-.58-.89-.91l.4.5a4.23,4.23,0,0,1-.59-1.06l.25.6a1.22,1.22,0,0,1-.07-.17l-4.57,1.92a9.25,9.25,0,0,0,1.31,1.95l.51.39.6.26a2.48,2.48,0,0,0,1.63-.13,2.52,2.52,0,0,0,1.53-2.29l0-.72a2.57,2.57,0,0,0-.73-1.77,2.5,2.5,0,0,0-4.27,1.77Z" transform="translate(-222.45 -144.29)"/><path class="cls-8" d="M305.44,338.62c3.21,0,3.22-5,0-5s-3.22,5,0,5Z" transform="translate(-222.45 -144.29)"/><path class="cls-8" d="M305.5,338.89c3.21,0,3.22-5,0-5s-3.23,5,0,5Z" transform="translate(-222.45 -144.29)"/><path class="cls-8" d="M305.74,339.19c3.21,0,3.22-5,0-5s-3.23,5,0,5Z" transform="translate(-222.45 -144.29)"/><path class="cls-8" d="M305.8,339.4c3.21,0,3.22-5,0-5s-3.23,5,0,5Z" transform="translate(-222.45 -144.29)"/><path class="cls-8" d="M306,339.61c3.21,0,3.22-5,0-5s-3.23,5,0,5Z" transform="translate(-222.45 -144.29)"/><path class="cls-8" d="M306.24,340c3.22,0,3.23-5,0-5s-3.22,5,0,5Z" transform="translate(-222.45 -144.29)"/><path class="cls-8" d="M307.65,341.73c3.22,0,3.22-5,0-5s-3.22,5,0,5Z" transform="translate(-222.45 -144.29)"/><path class="cls-8" d="M307.77,342.12c3.22,0,3.22-5,0-5s-3.22,5,0,5Z" transform="translate(-222.45 -144.29)"/><path class="cls-8" d="M307.53,341.64c3.22,0,3.22-5,0-5s-3.22,5,0,5Z" transform="translate(-222.45 -144.29)"/><path class="cls-8" d="M307.29,341.28c3.22,0,3.22-5,0-5s-3.22,5,0,5Z" transform="translate(-222.45 -144.29)"/><path class="cls-8" d="M307,340.83c3.22,0,3.22-5,0-5s-3.22,5,0,5Z" transform="translate(-222.45 -144.29)"/><path class="cls-8" d="M306.84,340.68c3.22,0,3.23-5,0-5s-3.22,5,0,5Z" transform="translate(-222.45 -144.29)"/><path class="cls-8" d="M306.57,340.41c3.22,0,3.23-5,0-5s-3.22,5,0,5Z" transform="translate(-222.45 -144.29)"/><path class="cls-8" d="M308.79,344.45c3.21,0,3.22-5,0-5s-3.23,5,0,5Z" transform="translate(-222.45 -144.29)"/><path class="cls-8" d="M313.6,344.15c3.22,0,3.22-5,0-5s-3.22,5,0,5Z" transform="translate(-222.45 -144.29)"/><path class="cls-8" d="M313.81,343.52c3.22,0,3.22-5,0-5s-3.22,5,0,5Z" transform="translate(-222.45 -144.29)"/><path class="cls-8" d="M314.2,342.51c3.21,0,3.22-5,0-5s-3.23,5,0,5Z" transform="translate(-222.45 -144.29)"/><path class="cls-8" d="M314.7,341.61c3.22,0,3.23-5,0-5s-3.22,5,0,5Z" transform="translate(-222.45 -144.29)"/><path class="cls-8" d="M314.85,341.61c3.22,0,3.23-5,0-5s-3.22,5,0,5Z" transform="translate(-222.45 -144.29)"/><path class="cls-8" d="M315.18,341.43c3.22,0,3.23-5,0-5s-3.22,5,0,5Z" transform="translate(-222.45 -144.29)"/><path class="cls-8" d="M315.45,341.28c3.22,0,3.22-5,0-5s-3.22,5,0,5Z" transform="translate(-222.45 -144.29)"/><path class="cls-8" d="M315.9,340.5c3.22,0,3.22-5,0-5s-3.22,5,0,5Z" transform="translate(-222.45 -144.29)"/><path class="cls-8" d="M316,340.65c3.22,0,3.22-5,0-5s-3.22,5,0,5Z" transform="translate(-222.45 -144.29)"/><path class="cls-8" d="M316.29,340.23c3.22,0,3.22-5,0-5s-3.22,5,0,5Z" transform="translate(-222.45 -144.29)"/><path class="cls-8" d="M316.65,339.93c3.22,0,3.22-5,0-5s-3.22,5,0,5Z" transform="translate(-222.45 -144.29)"/><path class="cls-8" d="M316.74,339.76c3.21,0,3.22-5,0-5s-3.22,5,0,5Z" transform="translate(-222.45 -144.29)"/><path class="cls-3" d="M307.88,332l-.28,0a1.85,1.85,0,0,0-.85.45,2.26,2.26,0,0,0-.94,1.63,1.86,1.86,0,0,0,.05,1l.25.6a2.43,2.43,0,0,0,.9.9l.59.25a2.5,2.5,0,0,0,1.33,0l.28,0a2.87,2.87,0,0,0,1.5-1.15,1.85,1.85,0,0,0,.29-.93,1.89,1.89,0,0,0,0-1l-.25-.59a2.59,2.59,0,0,0-.9-.9l-.6-.25a2.5,2.5,0,0,0-1.33,0Z" transform="translate(-222.45 -144.29)"/><path class="cls-3" d="M305.56,336.37c3.21,0,3.22-5,0-5s-3.23,5,0,5Z" transform="translate(-222.45 -144.29)"/><path class="cls-3" d="M301.43,333.81a3.42,3.42,0,0,0,1,1.79,8.51,8.51,0,0,1,.76.71l-.39-.5c.17.24.3.51.46.76a6,6,0,0,0,.93,1.14,12,12,0,0,1,1.37,1.3l-.39-.51a13.9,13.9,0,0,1,1.37,2.4,2.48,2.48,0,0,0,3.42.89,2.53,2.53,0,0,0,1.15-1.49,2.93,2.93,0,0,0-.25-1.93,14,14,0,0,0-1.57-2.64,7.28,7.28,0,0,0-1-1.11,6.87,6.87,0,0,1-.92-.87l.39.51c-.14-.2-.26-.41-.38-.62a5.62,5.62,0,0,0-.71-1c-.25-.29-.58-.5-.83-.79l.39.51a1.07,1.07,0,0,1-.16-.27l.25.6a.94.94,0,0,1-.06-.24A2.48,2.48,0,0,0,305.1,331a2.5,2.5,0,0,0-3.42.9l-.25.59a2.5,2.5,0,0,0,0,1.33Z" transform="translate(-222.45 -144.29)"/><path class="cls-3" d="M314.64,333.76c.17-.55.2-.35.08-.2.36-.5.23-.27.11-.16-.3.29.11-.08.16-.1a1.73,1.73,0,0,0-.28.19,7.28,7.28,0,0,0-1.47,1.17,6,6,0,0,0-1,1.48c-.14.32-.27.65-.41,1l.06-.15c-.08.13-.13.31-.21.44a3.14,3.14,0,0,1-.18.31c-.13.23,0,.22.07-.07,0,.17-.37.39-.5.51s-.28.23,0,0,0,0-.09.05-.42.29-.62.45a7.28,7.28,0,0,0-1.62,1.61c0,.06-.42.51-.4.58s.38-.39.06-.11l-.29.27a4.72,4.72,0,0,0-1.49,3.8,2.7,2.7,0,0,0,2,2.64,9.64,9.64,0,0,0,2.15.1c1.65,0,3.71.18,4.49-1.67a3.4,3.4,0,0,0,.26-1.34c0-.09,0-.5,0-.13s0,0,0-.13c0-.34-.17.37-.05.09s.2-.44.28-.67a3,3,0,0,0,.09-1.79c0-.12-.06-.22-.1-.34l-.05-.17a1.33,1.33,0,0,1-.08,1.06c-.08.35-.06.12,0,0s.13-.21.19-.31a5.65,5.65,0,0,0,.43-1.05,3.76,3.76,0,0,0,.11-.81c0-.66-.2.53-.24.6-.23.43-.24.28-.08.15s.3-.28.45-.42l.66-.62,1.42-1.31-3.93-.51,0,.09-.25-1.93.17-.43.9-.89.32-.15a2.75,2.75,0,0,0-.45.17,4.74,4.74,0,0,0-.51.24,3.8,3.8,0,0,0-1.2,1.16,5,5,0,0,0-.56,1.16c-.12.32,0,0,.06-.15s.36-.41.06-.14a3.77,3.77,0,0,0-1.26,1.83c0,.14-.15.32,0,.09s.45-.56.12-.25-.49.5-.73.75a2.5,2.5,0,0,0,3.54,3.54,5.85,5.85,0,0,0,1.78-2.39c.08-.31.2-.51-.09,0-.1.17-.37.4-.07.15a4.28,4.28,0,0,0,.86-.94,10.43,10.43,0,0,0,.52-1.16c-.15.32-.18.39-.09.23s.05-.1-.13.19c-.1.1-.79.44-.4.3a3,3,0,0,0,1.68-1.29,2.84,2.84,0,0,0,0-2.7c-.7-1.53-2.85-1.51-3.93-.51L313,337.1a5.78,5.78,0,0,0-1.15,1.27,3.4,3.4,0,0,0-.43,1.55c0,.1,0,.2,0,.3a1.11,1.11,0,0,1,.13-.54c.1-.21.1-.23,0-.05l-.15.25a5.86,5.86,0,0,0-.32.67,3.4,3.4,0,0,0-.13,2.29,2.41,2.41,0,0,0,.08.25,1.65,1.65,0,0,1,.13-1.16c-.12.35-.31.68-.41,1a6.1,6.1,0,0,0-.19,1.12c0,.13,0,.25,0,.38,0,.31,0,.25.05-.19l1.15-1.5,1-.24h-.21a3,3,0,0,0-.42,0h-2.23c-.19,0-.61-.09,0,.05l1.49,1.15-.05-.09.34,1.26a2.36,2.36,0,0,1,0-.37c0-.37,0-.22,0,0,.14-.53-.19.3-.05,0s-.37.37,0,.08a7.65,7.65,0,0,0,1.37-1.63c.31-.48-.35.33,0-.05l.24-.23c.4-.4-.44.3,0,0l.28-.19a8.52,8.52,0,0,0,1.74-1.48,8,8,0,0,0,1.24-2.07c.09-.2.17-.4.25-.61.18-.42-.17.35,0,.08.06-.12.11-.25.18-.37s.31-.46.07-.14.14-.14.14-.11-.44.32,0,.05.58-.4.86-.62a4.39,4.39,0,0,0,1.59-2.24,2.5,2.5,0,1,0-4.83-1.33Z" transform="translate(-222.45 -144.29)"/><path class="cls-3" d="M308.43,343c3.21,0,3.22-5,0-5s-3.23,5,0,5Z" transform="translate(-222.45 -144.29)"/><path class="cls-3" d="M308.83,344.14c3.21,0,3.22-5,0-5s-3.23,5,0,5Z" transform="translate(-222.45 -144.29)"/><path class="cls-3" d="M309,344.9c3.21,0,3.22-5,0-5s-3.23,5,0,5Z" transform="translate(-222.45 -144.29)"/><path class="cls-3" d="M311.41,343.07a.58.58,0,0,0,0-.14c0-.19.08-.49.09-.68v-.14c0-.21-.06-.47-.09-.68,0,0,0-.05,0-.07s0-.1,0-.14c-.09-.22-.18-.44-.28-.65l0-.07a.83.83,0,0,0-.07-.13,2.4,2.4,0,0,0-.18-.26,1.8,1.8,0,0,0-.64-.7,1.94,1.94,0,0,0-.85-.45,2,2,0,0,0-1,0,2,2,0,0,0-.93.3l-.5.39a2.5,2.5,0,0,0-.65,1.11l-.09.66a2.54,2.54,0,0,0,.35,1.26,2.31,2.31,0,0,1,.28.48l-.25-.6a1,1,0,0,1,.07.25l-.09-.66a.43.43,0,0,1,0,.16l.09-.66a.33.33,0,0,1,0,.14,2,2,0,0,0,0,1,1.77,1.77,0,0,0,.3.93,1.8,1.8,0,0,0,.64.7,1.89,1.89,0,0,0,.85.45l.66.09a2.54,2.54,0,0,0,1.27-.34l.5-.39a2.55,2.55,0,0,0,.65-1.11Z" transform="translate(-222.45 -144.29)"/><path class="cls-3" d="M306.79,340.11c3.22,0,3.23-5,0-5s-3.22,5,0,5Z" transform="translate(-222.45 -144.29)"/><path class="cls-3" d="M307.69,338.55c2.22,0,.54-4.66-1.47-4.66-2.23,0-.54,4.66,1.47,4.66Z" transform="translate(-222.45 -144.29)"/><path class="cls-3" d="M305.26,338.49a1.37,1.37,0,0,0,1.27-2,3.39,3.39,0,0,0-3-1.9,1.37,1.37,0,0,0-1.28,2,3.41,3.41,0,0,0,3,1.9Z" transform="translate(-222.45 -144.29)"/><path class="cls-3" d="M306.37,340.51a2.61,2.61,0,0,0,2.48-2.29c0-1.37-1.31-1.83-2.43-1.83a2.59,2.59,0,0,0-2.48,2.3c0,1.36,1.3,1.82,2.43,1.82Z" transform="translate(-222.45 -144.29)"/><path class="cls-3" d="M305.25,339.71c1,0,2.62-.23,3.23-1.21s-.41-1.47-1.26-1.47c-1,0-2.62.23-3.23,1.21s.41,1.47,1.26,1.47Z" transform="translate(-222.45 -144.29)"/><path class="cls-3" d="M304.9,338.74c.93,0,2.62.13,3.39-.5s-.45-.64-1-.64c-.93,0-2.62-.12-3.39.5s.45.64,1,.64Z" transform="translate(-222.45 -144.29)"/><path class="cls-3" d="M306.85,340c2.49,0,0-4.19-1.78-4.19-2.5,0,0,4.19,1.78,4.19Z" transform="translate(-222.45 -144.29)"/><path class="cls-3" d="M311.54,335.2a2.38,2.38,0,0,1-1.23.18s0,2.32,0,2.5c0,.59,0,1.18,0,1.77a5.49,5.49,0,0,0,0,.73l.69.11c.15,0,.4,0,.46.19v-5a2.21,2.21,0,0,1-.83,1.17,8.4,8.4,0,0,0-1.12,1.11,4.65,4.65,0,0,1-1,1.17,2.88,2.88,0,0,1-1.66.34v.09c0,.1,0,.21,0,.31v-.09a7.36,7.36,0,0,1-.15.94,3.6,3.6,0,0,0,0,.73c0,.59,0,1.18,0,1.77s0,1.18,0,1.77v.39a2,2,0,0,0,0,.34l.18-.23a3.07,3.07,0,0,0,0-.73c0-.59,0-1.18,0-1.77s0-1.17,0-1.76v-.39c0-.12,0-.23,0-.35l-.18.23v5a7.56,7.56,0,0,0,.17-1.34v.09a2.53,2.53,0,0,0,2-.67,8.69,8.69,0,0,0,.66-.84,5.66,5.66,0,0,1,.71-.76c.45-.4,1.13-.88,1.24-1.52a5.93,5.93,0,0,0,0-.73c0-.59,0-1.18,0-1.77s0-1.18,0-1.77a3,3,0,0,0,0-.73c-.07-.17-.25-.15-.41-.18l-.74-.12v5a2.38,2.38,0,0,0,1.23-.18,6.46,6.46,0,0,0,0-.73c0-.59,0-1.18,0-1.77s0-1.18,0-1.77a6.3,6.3,0,0,1,0-.73Z" transform="translate(-222.45 -144.29)"/><path class="cls-3" d="M307.06,339.17v-.27c0-.19,0-2.5,0-2.5s0,2.48,0,2.5v2.76c0,.19,0,2.5,0,2.5s0-2.47,0-2.5v-.78c0-.18,0-2.5,0-2.5s0,2.48,0,2.5v.78c0,.19,0,2.5,0,2.5s0-2.47,0-2.5V338.9c0-.19,0-2.5,0-2.5s0,2.48,0,2.5v.27c0,.19,0,2.5,0,2.5s0-2.48,0-2.5Z" transform="translate(-222.45 -144.29)"/><path class="cls-3" d="M310.72,340.58l-.13,1.05a.57.57,0,0,0,.08.42.62.62,0,0,0,.28.34,1,1,0,0,0,.45.2,1.25,1.25,0,0,0,.54.05l.4-.06a2,2,0,0,0,.69-.34l.25-.24a1.09,1.09,0,0,0,.25-.57l.14-1a.64.64,0,0,0-.09-.43.62.62,0,0,0-.28-.34,1,1,0,0,0-.45-.2,1.4,1.4,0,0,0-.54-.05l-.4.06a2,2,0,0,0-.69.34L311,340a1.06,1.06,0,0,0-.25.56Z" transform="translate(-222.45 -144.29)"/><path class="cls-3" d="M311.69,339.22a19,19,0,0,0-1.75,2.82.82.82,0,0,0,.07.83,1.2,1.2,0,0,0,.83.44,1.86,1.86,0,0,0,1.88-.9c.25-.5.53-1,.83-1.47l-.17.27q.36-.56.75-1.08a1,1,0,0,0,.23-.85,1,1,0,0,0-.62-.61,1.83,1.83,0,0,0-1.11,0,1.75,1.75,0,0,0-.94.58Z" transform="translate(-222.45 -144.29)"/><path class="cls-3" d="M308.29,342.62c3.22,0,3.23-5,0-5s-3.22,5,0,5Z" transform="translate(-222.45 -144.29)"/><path class="cls-3" d="M308.05,342.36c3.22,0,3.23-5,0-5s-3.22,5,0,5Z" transform="translate(-222.45 -144.29)"/><path class="cls-3" d="M308,342.33c3.22,0,3.23-5,0-5s-3.22,5,0,5Z" transform="translate(-222.45 -144.29)"/><path class="cls-3" d="M307.87,342.22c3.22,0,3.23-5,0-5s-3.22,5,0,5Z" transform="translate(-222.45 -144.29)"/><path class="cls-3" d="M307.8,342.1c3.22,0,3.22-5,0-5s-3.22,5,0,5Z" transform="translate(-222.45 -144.29)"/><path class="cls-3" d="M306,340.11c3.21,0,3.22-5,0-5s-3.23,5,0,5Z" transform="translate(-222.45 -144.29)"/><path class="cls-3" d="M305.83,340c3.21,0,3.22-5,0-5s-3.23,5,0,5Z" transform="translate(-222.45 -144.29)"/><path class="cls-3" d="M305.24,339c3.22,0,3.23-5,0-5s-3.22,5,0,5Z" transform="translate(-222.45 -144.29)"/><path class="cls-3" d="M305.05,338.86c3.22,0,3.22-5,0-5s-3.22,5,0,5Z" transform="translate(-222.45 -144.29)"/><path class="cls-3" d="M304.48,338.13c3.22,0,3.22-5,0-5s-3.22,5,0,5Z" transform="translate(-222.45 -144.29)"/><path class="cls-3" d="M305.09,339c3.22,0,3.23-5,0-5s-3.22,5,0,5Z" transform="translate(-222.45 -144.29)"/><path class="cls-3" d="M305.56,339.59c3.21,0,3.22-5,0-5s-3.23,5,0,5Z" transform="translate(-222.45 -144.29)"/><path class="cls-3" d="M307.28,341.67c3.21,0,3.22-5,0-5s-3.23,5,0,5Z" transform="translate(-222.45 -144.29)"/><path class="cls-3" d="M306.72,341.13c3.22,0,3.23-5,0-5s-3.22,5,0,5Z" transform="translate(-222.45 -144.29)"/><path class="cls-3" d="M308.16,342.67c3.22,0,3.22-5,0-5s-3.22,5,0,5Z" transform="translate(-222.45 -144.29)"/><path class="cls-3" d="M306.5,341.93c0,.08,0,.15,0,.22l.08-.66a1.19,1.19,0,0,1-.09.36l.25-.6,0,.07,4.57,1.92a3.32,3.32,0,0,0,.11-.83c0-.13,0-.29-.06-.4a2,2,0,0,0-.06-.41,3.22,3.22,0,0,0-.31-.74c0-.06-.08-.11-.11-.17l.25.6a1.6,1.6,0,0,1,0-.21,4.42,4.42,0,0,0-.31-.77c-.06-.13-.14-.25-.2-.38l.26.6a1.42,1.42,0,0,1-.07-.22l.09.67c0-.1,0-.2,0-.3s-.05-.5-.09-.7a.25.25,0,0,0,0-.07v0l-.25-.59a.22.22,0,0,0-.05-.08,1.8,1.8,0,0,0-.64-.7,2.21,2.21,0,0,0-1.85-.49,1.85,1.85,0,0,0-.93.29l-.5.39a2.5,2.5,0,0,0-.65,1.11l-.08.66a2.43,2.43,0,0,0,.34,1.26l0,.08-.25-.6,0,.12-.09-.67c0,.09,0,.17,0,.25a6.31,6.31,0,0,0,.1.76.57.57,0,0,0,0,.14,6.39,6.39,0,0,0,.35.81c0,.08.09.16.12.24l-.25-.59c0,.1.05.21.09.32v0l.25.6a.16.16,0,0,1,0,.07.49.49,0,0,1,.1.15l-.25-.6a1.09,1.09,0,0,1,0,.17l-.09-.67a.48.48,0,0,1,0,.17l.09-.66s0,0,0,.06a1.9,1.9,0,0,0-.05,1,2,2,0,0,0,.3.93l.39.51a1.89,1.89,0,0,0,.8.51,1.2,1.2,0,0,0,.64.17,1.85,1.85,0,0,0,1,0l.6-.25a2.5,2.5,0,0,0,.9-.9c.11-.24.22-.48.31-.73,0-.06,0-.12.05-.18.05-.26.08-.53.11-.79,0-.07,0-.14,0-.21a1.88,1.88,0,0,0-.22-1,2.3,2.3,0,0,0-1.32-1.32,1.88,1.88,0,0,0-1-.22l-.67.09a2.52,2.52,0,0,0-1.1.65l-.39.5a2.43,2.43,0,0,0-.34,1.26Z" transform="translate(-222.45 -144.29)"/><path class="cls-3" d="M316.23,340.34c3.22,0,3.22-5,0-5s-3.22,5,0,5Z" transform="translate(-222.45 -144.29)"/><path class="cls-3" d="M316.45,340.17c3.22,0,3.23-5,0-5s-3.22,5,0,5Z" transform="translate(-222.45 -144.29)"/><path class="cls-3" d="M316.6,340.07c3.22,0,3.23-5,0-5s-3.22,5,0,5Z" transform="translate(-222.45 -144.29)"/><path class="cls-3" d="M316.72,340c3.22,0,3.23-5,0-5s-3.22,5,0,5Z" transform="translate(-222.45 -144.29)"/><path class="cls-3" d="M315.57,341.1c3.22,0,3.22-5,0-5s-3.22,5,0,5Z" transform="translate(-222.45 -144.29)"/><path class="cls-3" d="M315.72,340.82c3.22,0,3.22-5,0-5s-3.22,5,0,5Z" transform="translate(-222.45 -144.29)"/><path class="cls-3" d="M315.89,340.82c3.21,0,3.22-5,0-5s-3.23,5,0,5Z" transform="translate(-222.45 -144.29)"/><path class="cls-3" d="M316.06,340.7c3.22,0,3.23-5,0-5s-3.22,5,0,5Z" transform="translate(-222.45 -144.29)"/><path class="cls-3" d="M316.21,340.61c3.22,0,3.23-5,0-5s-3.22,5,0,5Z" transform="translate(-222.45 -144.29)"/><path class="cls-3" d="M315.57,341.22c3.22,0,3.22-5,0-5s-3.22,5,0,5Z" transform="translate(-222.45 -144.29)"/><path class="cls-3" d="M315.3,341.52c3.22,0,3.23-5,0-5s-3.22,5,0,5Z" transform="translate(-222.45 -144.29)"/><path class="cls-3" d="M315.11,341.82c3.22,0,3.22-5,0-5s-3.22,5,0,5Z" transform="translate(-222.45 -144.29)"/><path class="cls-3" d="M315,342c3.22,0,3.22-5,0-5s-3.22,5,0,5Z" transform="translate(-222.45 -144.29)"/><text class="cls-9" transform="translate(125.03 240.57)">ISTE</text><text class="cls-10" transform="translate(120.57 254.48)">INDIAN SOCIETY FOR TECHNICAL EDUCATION</text></g></svg>